<?xml version="1.0" encoding="utf-8"?>
<!-- Generator: Adobe Illustrator 16.0.0, SVG Export Plug-In . SVG Version: 6.00 Build 0)  -->
<!DOCTYPE svg PUBLIC "-//W3C//DTD SVG 1.1//EN" "http://www.w3.org/Graphics/SVG/1.1/DTD/svg11.dtd">
<svg version="1.1" id="Capa_1" xmlns="http://www.w3.org/2000/svg" xmlns:xlink="http://www.w3.org/1999/xlink" x="0px" y="0px"
	 width="50px" height="50px" viewBox="155 19 50 50" enable-background="new 155 19 50 50" xml:space="preserve">
<g>
	<linearGradient id="SVGID_1_" gradientUnits="userSpaceOnUse" x1="167.4341" y1="63.4199" x2="167.4341" y2="28.9678">
		<stop  offset="0" style="stop-color:#D275A7"/>
		<stop  offset="1" style="stop-color:#6E1469"/>
	</linearGradient>
	<path fill="url(#SVGID_1_)" d="M178.145,54.516l-9.76-9.781c-0.639-0.639-1.488-0.993-2.392-0.993
		c-0.902,0-1.753,0.354-2.391,0.995c-0.06,0.057-0.116,0.119-0.171,0.182l-0.681-0.683c-0.315-0.316-0.489-0.737-0.489-1.185V32.353
		c0-0.901-0.353-1.75-0.992-2.392c-0.639-0.641-1.488-0.994-2.389-0.994c-1.864,0-3.381,1.519-3.381,3.386l0.001,12.739
		c0,0.936,0.363,1.818,1.024,2.48l10.051,10.076c0.109,0.111,0.228,0.213,0.35,0.305v2.596c0,1.584,1.288,2.871,2.871,2.871h6.675
		c1.584,0,2.871-1.287,2.871-2.871v-2.602C179.478,56.725,179.078,55.451,178.145,54.516z M157.881,46.221
		c-0.301-0.301-0.466-0.703-0.466-1.129l-0.001-12.739c0-0.812,0.658-1.472,1.467-1.472c0.389,0,0.757,0.153,1.035,0.433
		s0.432,0.647,0.432,1.039v10.698c0,0.958,0.372,1.859,1.049,2.537l1.579,1.584l4.687,4.695c0.188,0.188,0.433,0.281,0.678,0.281
		c0.244,0,0.488-0.094,0.677-0.279c0.373-0.373,0.374-0.979,0-1.354l-4.224-4.232c0.049-0.07,0.104-0.137,0.163-0.197
		c0.278-0.277,0.646-0.43,1.037-0.43c0.392,0,0.76,0.152,1.037,0.43l9.76,9.783c0.229,0.229,0.398,0.494,0.51,0.779h-8.526
		c-0.318,0-0.618-0.125-0.843-0.35L157.881,46.221z M169.797,61.506c-0.528,0-0.957-0.43-0.957-0.957v-1.986h8.589v1.986
		c0,0.527-0.429,0.957-0.957,0.957H169.797z"/>
	<linearGradient id="SVGID_2_" gradientUnits="userSpaceOnUse" x1="192.5664" y1="63.4199" x2="192.5664" y2="28.9678">
		<stop  offset="0" style="stop-color:#D275A7"/>
		<stop  offset="1" style="stop-color:#6E1469"/>
	</linearGradient>
	<path fill="url(#SVGID_2_)" d="M201.119,28.967c-0.9,0-1.75,0.353-2.389,0.994c-0.64,0.64-0.992,1.49-0.992,2.392v10.698
		c0,0.448-0.174,0.869-0.489,1.185l-0.681,0.683c-0.055-0.063-0.111-0.125-0.171-0.182c-0.638-0.641-1.487-0.995-2.391-0.995
		s-1.753,0.354-2.392,0.993l-9.76,9.781c-0.935,0.936-1.334,2.209-1.198,3.432v2.602c0,1.584,1.287,2.871,2.871,2.871h6.675
		c1.583,0,2.871-1.287,2.871-2.871v-2.596c0.122-0.092,0.24-0.193,0.35-0.305l10.051-10.076c0.661-0.662,1.024-1.545,1.024-2.48
		l0.001-12.739C204.5,30.486,202.983,28.967,201.119,28.967z M191.16,60.549c0,0.527-0.429,0.957-0.957,0.957h-6.675
		c-0.528,0-0.957-0.43-0.957-0.957v-1.986h8.589V60.549z M202.585,45.092c0,0.213-0.041,0.42-0.12,0.611s-0.195,0.365-0.346,0.518
		l-10.05,10.078c-0.225,0.225-0.524,0.35-0.843,0.35H182.7c0.111-0.285,0.281-0.551,0.51-0.779l9.76-9.783
		c0.277-0.277,0.646-0.43,1.037-0.43c0.391,0,0.759,0.152,1.037,0.43c0.06,0.061,0.114,0.127,0.162,0.195l-6.328,6.34
		c-0.374,0.375-0.374,0.98,0,1.354c0.187,0.186,0.433,0.279,0.677,0.279c0.245,0,0.49-0.094,0.677-0.281l6.776-6.785l0.016-0.016
		h0.001l1.579-1.584c0.677-0.678,1.049-1.579,1.049-2.537V32.353c0-0.392,0.153-0.76,0.432-1.039s0.646-0.433,1.035-0.433
		c0.809,0,1.467,0.66,1.467,1.472L202.585,45.092z"/>
	<linearGradient id="SVGID_3_" gradientUnits="userSpaceOnUse" x1="170.5073" y1="54.2715" x2="170.5073" y2="52.3574">
		<stop  offset="0" style="stop-color:#D275A7"/>
		<stop  offset="1" style="stop-color:#6E1469"/>
	</linearGradient>
	<path fill="url(#SVGID_3_)" d="M170.508,54.271c-0.529,0-0.958-0.43-0.958-0.957c0-0.529,0.428-0.957,0.956-0.957h0.002
		c0.528,0,0.957,0.428,0.957,0.957C171.465,53.842,171.036,54.271,170.508,54.271z"/>
	<linearGradient id="SVGID_4_" gradientUnits="userSpaceOnUse" x1="180.0005" y1="40.1514" x2="180.0005" y2="28.1191">
		<stop  offset="0" style="stop-color:#D275A7"/>
		<stop  offset="1" style="stop-color:#6E1469"/>
	</linearGradient>
	<path fill="url(#SVGID_4_)" d="M180.027,33.276c-0.474,0-0.859-0.386-0.859-0.859c0-0.474,0.386-0.86,0.859-0.86
		c0.305,0,0.626,0.155,0.93,0.45c0.341,0.33,0.885,0.321,1.215-0.021c0.33-0.341,0.321-0.885-0.02-1.215
		c-0.437-0.422-0.873-0.661-1.266-0.791v-1.001c0-0.475-0.385-0.859-0.859-0.859s-0.859,0.385-0.859,0.859v1.007
		c-1,0.355-1.719,1.311-1.719,2.431c0,1.422,1.156,2.578,2.578,2.578c0.474,0,0.859,0.386,0.859,0.859s-0.386,0.859-0.859,0.859
		c-0.367,0-0.764-0.231-1.116-0.65c-0.305-0.363-0.847-0.41-1.21-0.104c-0.364,0.306-0.41,0.848-0.105,1.211
		c0.46,0.546,1,0.927,1.572,1.119v1.003c0,0.475,0.385,0.86,0.859,0.86s0.859-0.385,0.859-0.86v-1.007
		c1-0.355,1.719-1.311,1.719-2.431C182.605,34.432,181.449,33.276,180.027,33.276z"/>
	<linearGradient id="SVGID_5_" gradientUnits="userSpaceOnUse" x1="180.0005" y1="43.6904" x2="180.0005" y2="24.5796">
		<stop  offset="0" style="stop-color:#D275A7"/>
		<stop  offset="1" style="stop-color:#6E1469"/>
	</linearGradient>
	<path fill="url(#SVGID_5_)" d="M180,43.69c-5.269,0-9.556-4.286-9.556-9.555s4.287-9.556,9.556-9.556s9.556,4.287,9.556,9.556
		S185.269,43.69,180,43.69z M180,26.302c-4.319,0-7.833,3.514-7.833,7.833c0,4.319,3.514,7.833,7.833,7.833s7.833-3.514,7.833-7.833
		C187.833,29.816,184.319,26.302,180,26.302z"/>
</g>
</svg>
