<?xml version="1.0" encoding="utf-8"?>
<!-- Generator: Adobe Illustrator 16.0.0, SVG Export Plug-In . SVG Version: 6.00 Build 0)  -->
<!DOCTYPE svg PUBLIC "-//W3C//DTD SVG 1.1//EN" "http://www.w3.org/Graphics/SVG/1.1/DTD/svg11.dtd">
<svg version="1.1" id="Capa_1" xmlns="http://www.w3.org/2000/svg" xmlns:xlink="http://www.w3.org/1999/xlink" x="0px" y="0px"
	 width="50px" height="50px" viewBox="155 19 50 50" enable-background="new 155 19 50 50" xml:space="preserve">
<g>
	<linearGradient id="SVGID_1_" gradientUnits="userSpaceOnUse" x1="180.0005" y1="68.5" x2="180.0005" y2="19.5005">
		<stop  offset="0" style="stop-color:#D275A7"/>
		<stop  offset="1" style="stop-color:#6E1469"/>
	</linearGradient>
	<path fill="url(#SVGID_1_)" d="M180,19.5c-13.548,0-24.5,10.952-24.5,24.5s10.952,24.5,24.5,24.5s24.5-10.952,24.5-24.5
		S193.548,19.5,180,19.5z M172.604,22.837c-1.292,1.813-2.395,3.728-3.316,5.731h-5.562
		C166.152,26.003,169.188,24.019,172.604,22.837z M161.973,30.653h6.434c-1.514,3.898-2.345,8.056-2.465,12.305h-8.327
		C157.824,38.358,159.408,34.12,161.973,30.653z M161.973,57.348c-2.564-3.468-4.148-7.706-4.358-12.306h8.327
		c0.12,4.249,0.982,8.407,2.505,12.306H161.973z M163.727,59.432h5.611c0.932,2.004,2.035,3.938,3.307,5.751
		C169.218,64.001,166.162,62.007,163.727,59.432z M178.958,66.396c-1.042-0.05-2.074-0.17-3.076-0.351
		c-1.664-2.054-3.087-4.269-4.239-6.603h7.315V66.396z M178.958,57.348h-8.268c-1.612-3.889-2.535-8.047-2.665-12.306h10.933V57.348
		z M178.958,42.958h-10.933c0.13-4.249,1.043-8.417,2.646-12.305h8.287V42.958z M178.968,28.568h-0.01h-7.335
		c1.162-2.354,2.585-4.569,4.259-6.603c1.002-0.191,2.034-0.301,3.086-0.351V28.568z M198.027,30.653
		c2.564,3.467,4.158,7.695,4.358,12.305h-8.327c-0.12-4.249-0.982-8.407-2.505-12.305H198.027z M196.273,28.568h-5.611
		c-0.932-2.004-2.035-3.938-3.316-5.751C190.782,23.999,193.838,25.993,196.273,28.568z M181.042,21.614
		c1.042,0.05,2.074,0.17,3.076,0.351c1.664,2.054,3.087,4.269,4.239,6.603h-7.315V21.614z M181.042,30.653h8.268
		c1.612,3.878,2.535,8.046,2.665,12.305h-10.933V30.653z M181.042,45.042h10.933c-0.13,4.249-1.042,8.417-2.646,12.306h-8.287
		V45.042z M181.032,66.386v-6.954h0.01h7.335c-1.162,2.355-2.585,4.569-4.259,6.603C183.116,66.226,182.084,66.336,181.032,66.386z
		 M187.346,65.183c1.271-1.813,2.374-3.747,3.296-5.751h5.642C193.838,62.007,190.782,64.001,187.346,65.183z M191.523,57.348
		c1.503-3.898,2.354-8.057,2.525-12.306h8.347c-0.21,4.6-1.793,8.838-4.358,12.306H191.523z"/>
</g>
</svg>
