<?xml version="1.0" encoding="utf-8"?>
<!-- Generator: Adobe Illustrator 16.0.0, SVG Export Plug-In . SVG Version: 6.00 Build 0)  -->
<!DOCTYPE svg PUBLIC "-//W3C//DTD SVG 1.1//EN" "http://www.w3.org/Graphics/SVG/1.1/DTD/svg11.dtd">
<svg version="1.1" id="Capa_1" xmlns="http://www.w3.org/2000/svg" xmlns:xlink="http://www.w3.org/1999/xlink" x="0px" y="0px"
	 width="50px" height="50px" viewBox="155 19 50 50" enable-background="new 155 19 50 50" xml:space="preserve">
<g>
	<linearGradient id="SVGID_1_" gradientUnits="userSpaceOnUse" x1="171.8394" y1="39.583" x2="171.8394" y2="37.6694">
		<stop  offset="0" style="stop-color:#D275A7"/>
		<stop  offset="1" style="stop-color:#6E1469"/>
	</linearGradient>
	<path fill="url(#SVGID_1_)" d="M172.516,39.303c0.375-0.375,0.375-0.98,0-1.354c-0.372-0.374-0.979-0.374-1.353,0
		c-0.375,0.373-0.375,0.979,0,1.354C171.537,39.676,172.144,39.676,172.516,39.303z"/>
	<linearGradient id="SVGID_2_" gradientUnits="userSpaceOnUse" x1="179.9419" y1="63.2012" x2="179.9419" y2="24.9146">
		<stop  offset="0" style="stop-color:#D275A7"/>
		<stop  offset="1" style="stop-color:#6E1469"/>
	</linearGradient>
	<path fill="url(#SVGID_2_)" d="M184.595,24.914c-0.255,0-0.497,0.101-0.677,0.28L173.87,35.242c-0.374,0.374-0.374,0.98,0,1.354
		c0.374,0.374,0.979,0.374,1.354,0l9.371-9.371l12.181,12.181L175.29,60.891L163.108,48.71l6.701-6.701
		c0.374-0.374,0.374-0.979,0-1.353s-0.979-0.374-1.354,0l-7.377,7.377c-0.374,0.374-0.374,0.98,0,1.354l13.534,13.534
		c0.373,0.374,0.979,0.374,1.354,0l22.838-22.839c0.374-0.374,0.374-0.98,0-1.354l-13.533-13.534
		C185.092,25.015,184.849,24.914,184.595,24.914z"/>
	<linearGradient id="SVGID_3_" gradientUnits="userSpaceOnUse" x1="180.0005" y1="68.5" x2="180.0005" y2="19.5005">
		<stop  offset="0" style="stop-color:#D275A7"/>
		<stop  offset="1" style="stop-color:#6E1469"/>
	</linearGradient>
	<path fill="url(#SVGID_3_)" d="M202.866,19.781l-4.108,4.107c-2.396-1.81-5.706-1.839-8.083-0.075l-3.364-3.462
		c-0.004-0.003-0.006-0.006-0.01-0.01c-1.116-1.116-2.931-1.128-4.062,0.002l-26.897,27.014c-1.122,1.121-1.122,2.938,0,4.061
		l3.796,3.796c-0.849,2.427-0.236,5.178,1.617,7.03c1.854,1.854,4.604,2.466,7.031,1.618l3.796,3.796
		c1.122,1.122,2.939,1.122,4.06,0.002l27.017-26.901c1.122-1.122,1.122-2.938,0-4.06c-0.003-0.003-0.007-0.006-0.01-0.009
		l-3.462-3.364c1.759-2.36,1.752-5.671-0.075-8.083l4.108-4.107c0.373-0.374,0.373-0.979,0-1.354
		C203.846,19.407,203.239,19.407,202.866,19.781z M198.197,32.707c-0.182,0.181-0.282,0.427-0.28,0.684s0.106,0.501,0.29,0.679
		l4.102,3.986c0.371,0.375,0.367,0.978-0.002,1.347L175.29,66.305c-0.374,0.374-0.981,0.374-1.354,0l-4.244-4.244
		c-0.184-0.184-0.429-0.28-0.677-0.28c-0.138,0-0.276,0.029-0.406,0.09c-1.841,0.863-4.052,0.47-5.5-0.979
		c-1.449-1.449-1.844-3.658-0.979-5.499c0.172-0.365,0.096-0.798-0.189-1.083l-4.244-4.244c-0.374-0.373-0.374-0.98,0.001-1.355
		l26.898-27.014c0.372-0.372,0.975-0.375,1.349-0.004l3.985,4.102c0.358,0.368,0.971,0.404,1.364,0.01
		c1.638-1.639,4.203-1.814,6.094-0.542l-1.404,1.404c-1.067-0.509-2.386-0.322-3.269,0.56c-1.118,1.12-1.118,2.941,0,4.061
		c1.123,1.122,2.939,1.123,4.062,0c0.902-0.902,1.061-2.226,0.563-3.269l1.402-1.403C200.002,28.48,199.856,31.048,198.197,32.707z
		 M195.422,28.578c0.373,0.374,0.375,0.979,0,1.354c-0.374,0.374-0.979,0.374-1.354,0c-0.374-0.374-0.374-0.981-0.001-1.354
		C194.441,28.205,195.049,28.204,195.422,28.578z"/>
	<g>
		<g>
			<linearGradient id="SVGID_4_" gradientUnits="userSpaceOnUse" x1="179.9419" y1="50.4736" x2="179.9419" y2="39.8706">
				<stop  offset="0" style="stop-color:#D275A7"/>
				<stop  offset="1" style="stop-color:#6E1469"/>
			</linearGradient>
			<path fill="url(#SVGID_4_)" d="M184.998,40.854c-0.632-0.631-1.468-0.977-2.36-0.977s-1.73,0.348-2.362,0.979l-0.33,0.33
				l-0.335-0.335c-0.631-0.632-1.473-0.982-2.364-0.982c-0.891,0-1.729,0.348-2.358,0.977c-0.631,0.632-0.979,1.47-0.977,2.363
				c0,0.892,0.351,1.729,0.982,2.361l4.802,4.802c0.066,0.066,0.155,0.102,0.242,0.102c0.088,0,0.177-0.033,0.243-0.1l4.813-4.794
				c0.632-0.632,0.979-1.471,0.979-2.363C185.975,42.325,185.63,41.486,184.998,40.854z M184.507,45.092l-4.569,4.552l-4.559-4.56
				c-0.501-0.502-0.777-1.166-0.777-1.875c0-0.708,0.274-1.373,0.774-1.872c0.499-0.499,1.164-0.775,1.87-0.775
				c0.708,0,1.375,0.276,1.876,0.777l0.578,0.578c0.136,0.136,0.354,0.136,0.488,0l0.573-0.573c0.501-0.501,1.168-0.777,1.874-0.777
				c0.705,0,1.37,0.275,1.871,0.774c0.501,0.501,0.774,1.166,0.774,1.874C185.284,43.925,185.008,44.59,184.507,45.092z"/>
			<linearGradient id="SVGID_5_" gradientUnits="userSpaceOnUse" x1="179.9419" y1="51.0313" x2="179.9419" y2="39.314">
				<stop  offset="0" style="stop-color:#D275A7"/>
				<stop  offset="1" style="stop-color:#6E1469"/>
			</linearGradient>
			<path fill="url(#SVGID_5_)" d="M179.938,51.031c-0.234,0-0.466-0.097-0.635-0.264l-4.803-4.804
				c-0.738-0.738-1.146-1.716-1.146-2.754c-0.003-1.038,0.402-2.018,1.14-2.756c0.736-0.735,1.713-1.14,2.752-1.14
				c1.014,0,1.969,0.385,2.699,1.087c0.729-0.697,1.682-1.08,2.692-1.08c1.041,0,2.019,0.405,2.754,1.14
				c0.736,0.737,1.141,1.716,1.138,2.758c0,1.039-0.406,2.019-1.143,2.755l-4.813,4.795
				C180.409,50.935,180.177,51.031,179.938,51.031z M177.246,41.12c-0.558,0-1.082,0.217-1.477,0.612
				c-0.394,0.393-0.61,0.917-0.61,1.478c0,0.558,0.218,1.084,0.614,1.482l4.166,4.165l4.175-4.159
				c0.396-0.396,0.612-0.921,0.61-1.478c0-0.563-0.217-1.088-0.611-1.483c-0.793-0.788-2.168-0.787-2.958,0.003l-0.573,0.573
				c-0.339,0.341-0.935,0.342-1.276-0.001l-0.577-0.576C178.332,41.338,177.806,41.12,177.246,41.12z"/>
		</g>
	</g>
</g>
</svg>
