<?xml version="1.0" encoding="utf-8"?>
<!-- Generator: Adobe Illustrator 16.0.0, SVG Export Plug-In . SVG Version: 6.00 Build 0)  -->
<!DOCTYPE svg PUBLIC "-//W3C//DTD SVG 1.1//EN" "http://www.w3.org/Graphics/SVG/1.1/DTD/svg11.dtd">
<svg version="1.1" id="Layer_1" xmlns="http://www.w3.org/2000/svg" xmlns:xlink="http://www.w3.org/1999/xlink" x="0px" y="0px"
	 width="100px" height="46px" viewBox="0 0 100 46" enable-background="new 0 0 100 46" xml:space="preserve">
<g>
	<path fill="#E3451F" d="M100,26.271c0,6.688-5.422,12.109-12.109,12.109H29.069c-6.688,0-12.109-5.422-12.109-12.109l0,0
		c0-6.688,5.422-12.11,12.109-12.11h58.821C94.578,14.162,100,19.583,100,26.271L100,26.271z"/>
	<g>
		<radialGradient id="SVGID_1_" cx="19.354" cy="-1.498" r="54.4613" gradientUnits="userSpaceOnUse">
			<stop  offset="0.147" style="stop-color:#F3BC06"/>
			<stop  offset="1" style="stop-color:#E34320"/>
		</radialGradient>
		<path fill="url(#SVGID_1_)" d="M22.095,44.934c-0.25,0-0.495-0.102-0.675-0.293c-0.313-0.332-0.339-0.842-0.059-1.203
			c0.625-0.809,0.821-1.609,0.6-2.449c-0.733-2.766-5.656-5.361-7.49-6.127C3.494,29.99,1.052,25.129,0.933,21.907
			c-0.117-3.138,1.914-5.987,5.716-8.024c6.412-3.435,7.38-5.746,7.386-6.817c0.008-1.189-1.152-1.841-1.203-1.868
			c-0.422-0.235-0.598-0.752-0.402-1.193c0.153-0.344,0.489-0.552,0.847-0.552c0.1,0,0.201,0.018,0.302,0.053
			c0.134,0.046,3.285,1.169,4.161,3.742c0.472,1.383,0.208,2.866-0.783,4.41c1.043-0.988,2.412-1.884,4.079-2.668
			c3.403-1.684,3.683-2.852,3.645-3.277c-0.101-1.143-2.506-2.358-4.101-2.824c-0.477-0.137-0.757-0.625-0.644-1.106
			c0.102-0.423,0.48-0.712,0.902-0.712c0.058,0,0.115,0.006,0.173,0.018c0.793,0.15,7.78,1.589,8.896,5.772
			c0.601,2.25-0.648,4.729-3.712,7.355c-0.946,0.812-1.715,1.599-2.306,2.354c1.638-1.435,3.645-2.189,3.779-2.239
			c0.105-0.038,0.212-0.058,0.321-0.058c0.314,0,0.617,0.164,0.791,0.446c0.231,0.377,0.162,0.866-0.163,1.167
			c-1.283,1.179-1.913,2.165-1.876,2.928c0.05,0.994,1.319,1.948,2.662,2.958c1.94,1.459,4.356,3.272,4.474,6.327
			c0.335,8.652-10.785,16.35-11.258,16.674C22.459,44.877,22.278,44.934,22.095,44.934z"/>
		<path fill="#FFFFFF" d="M20.837,1.996c0,0,14.89,2.822,4.753,11.513c-9.199,7.887,0.075,11.753,0.075,11.753
			c-7.833-6.327,2.322-10.061,2.322-10.061c-6.878,6.328,4.722,6.716,4.962,12.93c0.318,8.24-10.855,15.873-10.855,15.873
			c4.07-5.264-7.267-9.998-7.267-9.998C-1.09,26.939-0.688,18.866,7.089,14.7C19.835,7.87,13.276,4.379,13.276,4.379
			s5.97,2.081,2.869,6.825c-4.457,6.818,0.504,8.777,0.504,8.777c-2.458-3.322-1.229-7.33,4.782-10.153
			C31.173,5.001,20.837,1.996,20.837,1.996L20.837,1.996z M20.836,0.141c-0.842,0-1.6,0.578-1.803,1.424
			c-0.231,0.962,0.334,1.934,1.283,2.212c1.722,0.506,3.359,1.551,3.44,2.018c-0.001,0-0.202,0.906-3.134,2.36
			c-0.639,0.302-1.225,0.614-1.756,0.93c0.079-0.854-0.056-1.578-0.249-2.138c-1.004-2.947-4.354-4.188-4.733-4.321
			c-0.206-0.071-0.417-0.105-0.624-0.105c-0.733,0-1.434,0.427-1.727,1.131c-0.377,0.906-0.013,1.936,0.869,2.367l0,0
			c-0.003,0,0.712,0.429,0.704,1.051c-0.007,0.387-0.368,2.497-6.896,5.993c-4.132,2.216-6.337,5.368-6.207,8.879
			c0.128,3.484,2.676,8.701,14.069,13.759c0.014,0.004,0.025,0.01,0.038,0.016c2.017,0.848,6.372,3.309,6.951,5.512
			c0.098,0.375,0.137,0.9-0.438,1.641c-0.556,0.723-0.507,1.742,0.119,2.41c0.362,0.383,0.853,0.58,1.351,0.58
			c0.363,0,0.728-0.107,1.045-0.322c0.492-0.336,12.017-8.316,11.663-17.477c-0.136-3.494-2.856-5.54-4.845-7.033
			c-1.008-0.758-2.264-1.701-2.292-2.263c-0.005-0.121,0.042-0.787,1.576-2.198c0.651-0.603,0.788-1.577,0.327-2.334
			c-0.268-0.44-0.697-0.733-1.171-0.84c2.173-2.342,2.98-4.614,2.404-6.774c-1.261-4.731-8.767-6.282-9.62-6.444
			C21.067,0.151,20.952,0.141,20.836,0.141L20.836,0.141z"/>
	</g>
	<g>
		<path fill="#FFFFFF" d="M41.05,33.078V20.02h1.988v5.283h1.781V20.02h1.988v13.058h-1.988V27.01h-1.781v6.068H41.05z"/>
		<path fill="#FFFFFF" d="M53.692,32.285c-0.455,0.629-1.184,0.941-2.186,0.941s-1.736-0.314-2.203-0.945
			c-0.468-0.631-0.701-1.58-0.701-2.854v-5.972c0-2.394,0.977-3.59,2.932-3.59c1.007,0,1.732,0.302,2.177,0.913
			c0.44,0.609,0.664,1.5,0.664,2.678v5.972C54.375,30.703,54.147,31.656,53.692,32.285z M50.781,31.055
			c0.115,0.301,0.356,0.451,0.715,0.451c0.361,0,0.598-0.156,0.71-0.463c0.116-0.311,0.171-0.842,0.171-1.592v-6.084
			c0-0.617-0.056-1.069-0.173-1.351c-0.116-0.284-0.345-0.431-0.682-0.431c-0.34,0-0.578,0.146-0.712,0.431
			c-0.138,0.281-0.208,0.731-0.208,1.344v6.091C50.603,30.217,50.663,30.752,50.781,31.055z"/>
		<path fill="#FFFFFF" d="M56.846,33.078V21.744h-1.529V20.02h4.979v1.724h-1.47v11.334H56.846z"/>
		<path fill="#FFFFFF" d="M64.105,33.078V20.02h2.931c0.964,0,1.658,0.285,2.092,0.848c0.429,0.567,0.646,1.405,0.646,2.507
			l0.009,5.891c0,1.316-0.216,2.279-0.651,2.893c-0.437,0.615-1.155,0.92-2.162,0.92H64.105z M66.096,31.535h0.651
			c0.363,0,0.634-0.119,0.798-0.355c0.169-0.238,0.25-0.672,0.25-1.307l-0.009-6.45c0-0.673-0.084-1.156-0.248-1.445
			c-0.165-0.287-0.45-0.427-0.856-0.427h-0.586V31.535z"/>
		<path fill="#FFFFFF" d="M71.568,33.078V20.02h4.376v1.716h-2.386v3.795h2.27v1.678h-2.27v4.156h2.478v1.713H71.568z"/>
		<path fill="#FFFFFF" d="M77.028,33.078l1.863-13.058h2.629l1.978,13.058h-1.854l-0.311-2.33h-2.106l-0.282,2.33H77.028z
			 M81.125,29.154l-0.874-6.559H80.22l-0.802,6.559H81.125z"/>
		<path fill="#FFFFFF" d="M84.864,33.078V20.02h1.987v11.369h2.515v1.689H84.864z"/>
	</g>
</g>
</svg>
