<?xml version="1.0" encoding="utf-8"?>
<!-- Generator: Adobe Illustrator 16.0.0, SVG Export Plug-In . SVG Version: 6.00 Build 0)  -->
<!DOCTYPE svg PUBLIC "-//W3C//DTD SVG 1.1//EN" "http://www.w3.org/Graphics/SVG/1.1/DTD/svg11.dtd">
<svg version="1.1" id="Capa_1" xmlns="http://www.w3.org/2000/svg" xmlns:xlink="http://www.w3.org/1999/xlink" x="0px" y="0px"
	 width="50px" height="50px" viewBox="155 19 50 50" enable-background="new 155 19 50 50" xml:space="preserve">
<g>
	<linearGradient id="SVGID_1_" gradientUnits="userSpaceOnUse" x1="180.0005" y1="66.0117" x2="180.0005" y2="21.9888">
		<stop  offset="0" style="stop-color:#D275A7"/>
		<stop  offset="1" style="stop-color:#6E1469"/>
	</linearGradient>
	<path fill="url(#SVGID_1_)" d="M201.629,33.473h-1.678l-16.658-8.743c-0.286-1.557-1.653-2.741-3.293-2.741
		s-3.007,1.184-3.293,2.741l-16.658,8.743h-1.678c-1.583,0-2.871,1.288-2.871,2.871v26.797c0,1.583,1.288,2.871,2.871,2.871h43.258
		c1.583,0,2.871-1.288,2.871-2.871V36.344C204.5,34.761,203.212,33.473,201.629,33.473z M180,23.902
		c0.791,0,1.436,0.644,1.436,1.436s-0.645,1.436-1.436,1.436s-1.436-0.644-1.436-1.436S179.208,23.902,180,23.902z M202.586,63.141
		c0,0.527-0.429,0.957-0.957,0.957h-43.258c-0.528,0-0.957-0.43-0.957-0.957V36.344c0-0.528,0.429-0.957,0.957-0.957h1.914h0.001
		h0.001h3.826c0.528,0,0.957-0.428,0.957-0.957c0-0.512-0.402-0.929-0.907-0.955l12.803-6.72c0.535,1.14,1.693,1.932,3.034,1.932
		s2.499-0.792,3.034-1.932l12.798,6.717H171.77c-0.528,0-0.957,0.428-0.957,0.957s0.429,0.957,0.957,0.957h27.943h0.001h0.002h1.913
		c0.528,0,0.957,0.429,0.957,0.957V63.141z"/>
	<linearGradient id="SVGID_2_" gradientUnits="userSpaceOnUse" x1="180.0005" y1="62.1836" x2="180.0005" y2="37.3013">
		<stop  offset="0" style="stop-color:#D275A7"/>
		<stop  offset="1" style="stop-color:#6E1469"/>
	</linearGradient>
	<path fill="url(#SVGID_2_)" d="M199.715,37.301h-39.43c-0.528,0-0.957,0.428-0.957,0.957v22.969c0,0.528,0.429,0.957,0.957,0.957
		h27.945c0.528,0,0.957-0.429,0.957-0.957s-0.429-0.957-0.957-0.957h-26.988V39.215h37.516V60.27h-2.871
		c-0.528,0-0.957,0.429-0.957,0.957s0.429,0.957,0.957,0.957h3.828c0.528,0,0.957-0.429,0.957-0.957V38.258
		C200.672,37.729,200.243,37.301,199.715,37.301z"/>
	<linearGradient id="SVGID_3_" gradientUnits="userSpaceOnUse" x1="167.9414" y1="35.3867" x2="167.9414" y2="33.4727">
		<stop  offset="0" style="stop-color:#D275A7"/>
		<stop  offset="1" style="stop-color:#6E1469"/>
	</linearGradient>
	<path fill="url(#SVGID_3_)" d="M167.941,35.387c0.529,0,0.957-0.429,0.957-0.957c0-0.529-0.428-0.957-0.957-0.957l0,0
		c-0.528,0-0.957,0.428-0.957,0.957C166.984,34.958,167.413,35.387,167.941,35.387z"/>
	<linearGradient id="SVGID_4_" gradientUnits="userSpaceOnUse" x1="192.0586" y1="62.1836" x2="192.0586" y2="60.2695">
		<stop  offset="0" style="stop-color:#D275A7"/>
		<stop  offset="1" style="stop-color:#6E1469"/>
	</linearGradient>
	<path fill="url(#SVGID_4_)" d="M192.059,60.27L192.059,60.27c-0.529,0-0.957,0.429-0.957,0.957s0.429,0.957,0.957,0.957
		c0.529,0,0.957-0.429,0.957-0.957S192.587,60.27,192.059,60.27z"/>
	<linearGradient id="SVGID_5_" gradientUnits="userSpaceOnUse" x1="167.8149" y1="54.6436" x2="167.8149" y2="44.8408">
		<stop  offset="0" style="stop-color:#D275A7"/>
		<stop  offset="1" style="stop-color:#6E1469"/>
	</linearGradient>
	<path fill="url(#SVGID_5_)" d="M168.004,52.729h-1.394c-0.528,0-0.957,0.429-0.957,0.957s0.429,0.957,0.957,0.957h1.394
		c1.615,0,2.93-1.314,2.93-2.93c0-1.614-1.314-2.929-2.93-2.929h-0.378c-0.561,0-1.016-0.455-1.016-1.015
		c0-0.561,0.455-1.016,1.016-1.016h1.394c0.528,0,0.957-0.429,0.957-0.957s-0.429-0.957-0.957-0.957h-1.394
		c-1.616,0-2.93,1.314-2.93,2.93c0,1.614,1.313,2.929,2.93,2.929h0.378c0.561,0,1.016,0.455,1.016,1.015
		C169.02,52.274,168.564,52.729,168.004,52.729z"/>
	<linearGradient id="SVGID_6_" gradientUnits="userSpaceOnUse" x1="175.8311" y1="54.6436" x2="175.8311" y2="44.8408">
		<stop  offset="0" style="stop-color:#D275A7"/>
		<stop  offset="1" style="stop-color:#6E1469"/>
	</linearGradient>
	<path fill="url(#SVGID_6_)" d="M178.224,54.644c0.528,0,0.957-0.429,0.957-0.957V48.19c0-1.848-1.503-3.35-3.35-3.35
		s-3.35,1.502-3.35,3.35v5.496c0,0.528,0.429,0.957,0.957,0.957s0.957-0.429,0.957-0.957v-1.791h2.871v1.791
		C177.267,54.215,177.695,54.644,178.224,54.644z M174.396,49.981V48.19c0-0.792,0.644-1.436,1.436-1.436s1.436,0.644,1.436,1.436
		v1.791H174.396z"/>
	<linearGradient id="SVGID_7_" gradientUnits="userSpaceOnUse" x1="184.3008" y1="54.6436" x2="184.3008" y2="44.8408">
		<stop  offset="0" style="stop-color:#D275A7"/>
		<stop  offset="1" style="stop-color:#6E1469"/>
	</linearGradient>
	<path fill="url(#SVGID_7_)" d="M181.908,44.841c-0.529,0-0.957,0.429-0.957,0.957v7.889c0,0.528,0.428,0.957,0.957,0.957h4.785
		c0.528,0,0.957-0.429,0.957-0.957s-0.429-0.957-0.957-0.957h-3.828v-6.932C182.865,45.27,182.437,44.841,181.908,44.841z"/>
	<linearGradient id="SVGID_8_" gradientUnits="userSpaceOnUse" x1="192.1855" y1="54.6436" x2="192.1855" y2="44.8408">
		<stop  offset="0" style="stop-color:#D275A7"/>
		<stop  offset="1" style="stop-color:#6E1469"/>
	</linearGradient>
	<path fill="url(#SVGID_8_)" d="M195.304,53.687c0-0.528-0.429-0.957-0.957-0.957h-3.366v-2.03h1.684
		c0.528,0,0.957-0.429,0.957-0.957s-0.429-0.957-0.957-0.957h-1.684v-2.03h3.366c0.528,0,0.957-0.429,0.957-0.957
		s-0.429-0.957-0.957-0.957h-4.323c-0.528,0-0.957,0.429-0.957,0.957v7.889c0,0.528,0.429,0.957,0.957,0.957h4.323
		C194.875,54.644,195.304,54.215,195.304,53.687z"/>
</g>
</svg>
