<?xml version="1.0" encoding="utf-8"?>
<!-- Generator: Adobe Illustrator 16.0.0, SVG Export Plug-In . SVG Version: 6.00 Build 0)  -->
<!DOCTYPE svg PUBLIC "-//W3C//DTD SVG 1.1//EN" "http://www.w3.org/Graphics/SVG/1.1/DTD/svg11.dtd">
<svg version="1.1" id="Capa_1" xmlns="http://www.w3.org/2000/svg" xmlns:xlink="http://www.w3.org/1999/xlink" x="0px" y="0px"
	 width="50px" height="50px" viewBox="155 19 50 50" enable-background="new 155 19 50 50" xml:space="preserve">
<g>
	<linearGradient id="SVGID_1_" gradientUnits="userSpaceOnUse" x1="180.0005" y1="66.7754" x2="180.0005" y2="21.2251">
		<stop  offset="0" style="stop-color:#D275A7"/>
		<stop  offset="1" style="stop-color:#6E1469"/>
	</linearGradient>
	<path fill="url(#SVGID_1_)" d="M203.654,33.571L192.18,22.078c-0.549-0.551-1.28-0.854-2.058-0.854
		c-0.614,0-1.21,0.195-1.703,0.553l-0.319,0.181l-14.764,2.031c-0.339,0.013-0.667,0.066-0.979,0.154l-0.518-0.486
		c-0.021-0.021-0.043-0.04-0.065-0.059c-0.527-0.454-1.2-0.703-1.895-0.703c-0.777,0-1.509,0.303-2.058,0.854l-11.474,11.491
		c-1.026,1.028-1.132,2.671-0.248,3.822c0.03,0.04,0.062,0.078,0.095,0.115l4.923,5.497c0.16,0.664,0.378,1.35,0.652,2.052
		c-1.195,1.438-1.119,3.582,0.228,4.93c0.002,0.002,0.005,0.005,0.007,0.007l0.016,0.017c0.676,0.673,1.569,1.049,2.521,1.064
		c-0.018,0.148-0.03,0.297-0.03,0.447c0,0.977,0.379,1.895,1.07,2.587l0.014,0.015c0.002,0.003,0.005,0.005,0.007,0.008
		c0.692,0.69,1.613,1.072,2.592,1.072c0.114,0,0.226-0.006,0.337-0.017c0.011,0.013,0.022,0.025,0.034,0.039
		c-0.002,0.049-0.007,0.098-0.007,0.147c0,0.978,0.38,1.896,1.069,2.589l0.016,0.015c0.002,0.002,0.004,0.005,0.006,0.007
		c0.692,0.691,1.612,1.073,2.591,1.073c0.003,0,0.005,0,0.008,0l0.349,0.349c0.041,0.917,0.413,1.775,1.066,2.427
		c0.004,0.005,0.008,0.009,0.012,0.014l0.012,0.012c0.652,0.648,1.506,1.018,2.419,1.058l0.965,0.967
		c0.789,0.789,1.84,1.223,2.961,1.223c1.289,0,2.487-0.579,3.287-1.591c0.435-0.549,0.708-1.18,0.825-1.831l0.606,0.606
		c0.802,0.801,1.907,1.26,3.036,1.26c0.932,0,1.843-0.315,2.565-0.887c0.804-0.635,1.343-1.542,1.522-2.539
		c0.775,0.664,1.777,1.038,2.794,1.038c0.933,0,1.845-0.315,2.567-0.888c0.937-0.74,1.514-1.85,1.583-3.041
		c0.063-1.109-0.313-2.194-1.04-3.017c0.673-0.119,1.311-0.402,1.845-0.825c0.937-0.741,1.514-1.85,1.583-3.043
		s-0.374-2.361-1.217-3.203l-1.556-1.557c0.057-0.056,0.11-0.115,0.161-0.18c2.914-3.713,4.483-6.475,5.062-8.918
		c0.045-0.08,0.085-0.163,0.118-0.249l0.323-0.811C204.762,35.978,204.596,34.515,203.654,33.571z M164.607,50.769
		c-0.432,0-0.863-0.164-1.192-0.493l-0.018-0.018c-0.658-0.658-0.658-1.727,0-2.384l1.319-1.317c0.329-0.33,0.76-0.494,1.191-0.494
		c0.432,0,0.863,0.164,1.192,0.494l0.018,0.017c0.658,0.658,0.658,1.727,0,2.384l-1.318,1.318
		C165.469,50.604,165.038,50.769,164.607,50.769z M169.386,54.401c-0.329,0.329-0.761,0.494-1.192,0.494
		c-0.431,0-0.863-0.165-1.192-0.494l-0.018-0.018c-0.659-0.659-0.659-1.725,0-2.383l3.12-3.122c0.33-0.328,0.761-0.492,1.192-0.492
		s0.863,0.164,1.192,0.492l0.017,0.019c0.659,0.659,0.659,1.727,0,2.384L169.386,54.401z M173.432,58.253
		c-0.329,0.33-0.76,0.495-1.192,0.495c-0.431,0-0.862-0.165-1.191-0.495l-0.018-0.017c-0.659-0.658-0.659-1.726,0-2.384l2.019-2.019
		c0.33-0.329,0.761-0.495,1.192-0.495c0.431,0,0.862,0.166,1.192,0.495l0.018,0.017c0.658,0.659,0.658,1.728,0,2.385L173.432,58.253
		z M176.272,62.614c-0.431,0-0.862-0.164-1.192-0.493l-0.018-0.018c-0.658-0.658-0.658-1.727,0-2.384l0.918-0.918
		c0.329-0.329,0.76-0.494,1.192-0.494c0.431,0,0.863,0.165,1.192,0.494l0.018,0.018c0.658,0.658,0.658,1.726,0,2.384l-0.918,0.918
		C177.135,62.45,176.704,62.614,176.272,62.614z M181.769,63.957c-0.443,0.56-1.089,0.839-1.735,0.839
		c-0.566,0-1.132-0.214-1.561-0.644l-0.171-0.171c0.2-0.133,0.388-0.287,0.562-0.46l0.918-0.919
		c0.646-0.647,0.998-1.479,1.058-2.325l0.707,0.706C182.348,61.783,182.47,63.07,181.769,63.957z M198.592,50.215
		c0.919,0.918,0.854,2.464-0.195,3.295c-0.393,0.311-0.864,0.46-1.337,0.46c-0.596,0-1.191-0.235-1.637-0.682l-8.003-8.003
		c-0.209-0.208-0.479-0.312-0.753-0.312c-0.272,0-0.545,0.104-0.753,0.312l0,0c-0.42,0.421-0.42,1.103,0,1.523l10.289,10.288
		c0.92,0.92,0.854,2.465-0.194,3.296c-0.394,0.311-0.865,0.461-1.339,0.461c-0.594,0-1.19-0.237-1.636-0.682l-10.24-10.24
		c-0.211-0.211-0.486-0.316-0.763-0.316s-0.552,0.105-0.763,0.316c-0.415,0.415-0.415,1.087,0,1.502l8.052,8.053
		c0.919,0.918,0.854,2.464-0.195,3.294c-0.394,0.311-0.864,0.461-1.337,0.461c-0.595,0-1.191-0.236-1.637-0.682l-8.32-8.321
		c-0.146-0.655-0.471-1.278-0.979-1.788l-0.018-0.018c-0.574-0.574-1.306-0.93-2.097-1.036c0.157-0.412,0.243-0.853,0.243-1.308
		c0-0.979-0.381-1.898-1.074-2.591c-0.002-0.003-0.003-0.004-0.006-0.007l-0.016-0.015c-0.692-0.69-1.611-1.069-2.588-1.069
		c-0.647,0-1.268,0.17-1.815,0.483c-0.157-0.642-0.48-1.23-0.958-1.71l-0.012-0.012c-0.004-0.005-0.009-0.009-0.013-0.014
		c-0.692-0.691-1.613-1.073-2.592-1.073c-0.979,0-1.9,0.382-2.592,1.074l-0.006,0.005c-0.128-0.397-0.236-0.792-0.321-1.181
		c-0.029-0.136-0.087-0.264-0.172-0.374l-5.148-5.748c-0.283-0.368-0.25-0.89,0.079-1.219l11.474-11.492
		c0.181-0.182,0.418-0.272,0.656-0.272c0.215,0,0.43,0.074,0.604,0.225l0.091,0.084c-0.769,0.757-1.246,1.807-1.246,2.967
		c0,2.292,1.86,4.157,4.15,4.165l7.311,0.093L198.592,50.215z M202.331,36.188l-0.394,0.994c-0.086,0.11-0.143,0.238-0.173,0.374
		c-0.558,2.56-2.522,5.494-4.726,8.301c-2.802-2.803-15.41-15.417-15.41-15.417l-8.138-0.104c-1.202,0-2.185-0.983-2.185-2.186
		c0-1.201,0.983-2.185,2.185-2.185l15.256-2.099c0.002,0,0.003-0.001,0.004-0.002l0.768-0.437c0.174-0.15,0.39-0.225,0.604-0.225
		c0.238,0,0.476,0.091,0.655,0.272l11.476,11.492C202.58,35.298,202.614,35.819,202.331,36.188z"/>
</g>
</svg>
