<?xml version="1.0" encoding="utf-8"?>
<!-- Generator: Adobe Illustrator 16.0.0, SVG Export Plug-In . SVG Version: 6.00 Build 0)  -->
<!DOCTYPE svg PUBLIC "-//W3C//DTD SVG 1.1//EN" "http://www.w3.org/Graphics/SVG/1.1/DTD/svg11.dtd">
<svg version="1.1" id="Capa_1" xmlns="http://www.w3.org/2000/svg" xmlns:xlink="http://www.w3.org/1999/xlink" x="0px" y="0px"
	 width="50px" height="50px" viewBox="155 19 50 50" enable-background="new 155 19 50 50" xml:space="preserve">
<g>
	<linearGradient id="SVGID_1_" gradientUnits="userSpaceOnUse" x1="187.6563" y1="53.5703" x2="187.6563" y2="51.6563">
		<stop  offset="0" style="stop-color:#D275A7"/>
		<stop  offset="1" style="stop-color:#6E1469"/>
	</linearGradient>
	<path fill="url(#SVGID_1_)" d="M187.656,51.656c-0.528,0-0.957,0.429-0.957,0.957s0.429,0.957,0.957,0.957s0.957-0.429,0.957-0.957
		S188.185,51.656,187.656,51.656z"/>
	<linearGradient id="SVGID_2_" gradientUnits="userSpaceOnUse" x1="174.6099" y1="58.3555" x2="174.6099" y2="44.957">
		<stop  offset="0" style="stop-color:#D275A7"/>
		<stop  offset="1" style="stop-color:#6E1469"/>
	</linearGradient>
	<path fill="url(#SVGID_2_)" d="M174.641,50.699c-0.528,0-0.957-0.43-0.957-0.957s0.429-0.957,0.957-0.957
		c0.339,0,0.697,0.173,1.035,0.5c0.38,0.368,0.985,0.358,1.354-0.022c0.367-0.38,0.357-0.985-0.022-1.353
		c-0.486-0.471-0.972-0.736-1.409-0.882v-1.114c0-0.528-0.429-0.957-0.957-0.957s-0.957,0.429-0.957,0.957v1.121
		c-1.114,0.396-1.914,1.46-1.914,2.707c0,1.583,1.288,2.871,2.871,2.871c0.527,0,0.957,0.43,0.957,0.957s-0.43,0.957-0.957,0.957
		c-0.409,0-0.851-0.257-1.243-0.725c-0.34-0.404-0.943-0.456-1.348-0.116c-0.405,0.341-0.457,0.944-0.117,1.349
		c0.512,0.608,1.113,1.032,1.751,1.246v1.117c0,0.528,0.429,0.957,0.957,0.957s0.957-0.429,0.957-0.957v-1.121
		c1.113-0.396,1.914-1.46,1.914-2.707C177.512,51.987,176.224,50.699,174.641,50.699z"/>
	<linearGradient id="SVGID_3_" gradientUnits="userSpaceOnUse" x1="166.9844" y1="35.3867" x2="166.9844" y2="29.6445">
		<stop  offset="0" style="stop-color:#D275A7"/>
		<stop  offset="1" style="stop-color:#6E1469"/>
	</linearGradient>
	<path fill="url(#SVGID_3_)" d="M166.984,35.387c0.528,0,0.957-0.429,0.957-0.957v-3.828c0-0.528-0.429-0.957-0.957-0.957
		s-0.957,0.429-0.957,0.957v3.828C166.027,34.958,166.456,35.387,166.984,35.387z"/>
	<linearGradient id="SVGID_4_" gradientUnits="userSpaceOnUse" x1="180.0005" y1="68.5" x2="180.0005" y2="19.5005">
		<stop  offset="0" style="stop-color:#D275A7"/>
		<stop  offset="1" style="stop-color:#6E1469"/>
	</linearGradient>
	<path fill="url(#SVGID_4_)" d="M200.672,42.086V34.43c0-2.639-2.146-4.785-4.785-4.785h-5.359v-7.273
		c0-1.583-1.288-2.871-2.871-2.871h-17.801c-1.583,0-2.871,1.288-2.871,2.871v3.445h-2.871c-1.583,0-2.871,1.288-2.871,2.871v0.957
		h-0.957c-2.639,0-4.785,2.146-4.785,4.785v29.285c0,2.639,2.146,4.785,4.785,4.785h29.285c2.311,0,4.244-1.646,4.688-3.828h1.628
		c2.639,0,4.785-2.146,4.785-4.785v-2.488h0.957c1.583,0,2.871-1.288,2.871-2.871v-8.613
		C204.5,43.803,202.783,42.086,200.672,42.086z M202.586,45.914c0,1.057-0.857,1.914-1.914,1.914V44
		C201.728,44,202.586,44.858,202.586,45.914z M195.887,31.559c1.583,0,2.871,1.288,2.871,2.871v13.398h-4.402v-5.742
		c0-2.311-1.646-4.244-3.828-4.688v-5.839H195.887z M168.898,22.371c0-0.528,0.429-0.957,0.957-0.957h17.801
		c0.528,0,0.957,0.429,0.957,0.957v14.93h-4.402v-8.613c0-1.583-1.288-2.871-2.871-2.871h-12.441V22.371z M178.469,37.301v-9.57
		h2.871c0.528,0,0.957,0.429,0.957,0.957v8.613H178.469z M172.727,37.301v-9.57h3.828v9.57H172.727z M163.156,28.688
		c0-0.528,0.429-0.957,0.957-0.957h6.699v9.57h-7.656V28.688z M160.285,31.559h0.957v5.742h-0.752c-1.582,0-3.076-1.146-3.076-2.871
		C157.414,32.847,158.702,31.559,160.285,31.559z M189.57,66.586h-29.285c-1.583,0-2.871-1.288-2.871-2.871V38.199
		c0.855,0.637,1.931,1.016,3.076,1.016h29.08c1.583,0,2.871,1.288,2.871,2.871v5.742h-6.699c-1.583,0-2.871,1.288-2.871,2.871v3.828
		c0,1.583,1.288,2.871,2.871,2.871h6.699v6.316C192.441,65.298,191.153,66.586,189.57,66.586z M198.758,59.887
		c0,1.583-1.288,2.871-2.871,2.871h-1.531v-5.359h4.402V59.887z M201.629,55.484h-15.887c-0.528,0-0.957-0.43-0.957-0.957v-3.828
		c0-0.527,0.429-0.957,0.957-0.957h14.93c0.683,0,1.338-0.179,1.914-0.513v5.298C202.586,55.055,202.157,55.484,201.629,55.484z"/>
	<linearGradient id="SVGID_5_" gradientUnits="userSpaceOnUse" x1="193.6855" y1="53.5703" x2="193.6855" y2="51.6563">
		<stop  offset="0" style="stop-color:#D275A7"/>
		<stop  offset="1" style="stop-color:#6E1469"/>
	</linearGradient>
	<path fill="url(#SVGID_5_)" d="M195.887,51.656h-4.402c-0.528,0-0.957,0.429-0.957,0.957s0.429,0.957,0.957,0.957h4.402
		c0.528,0,0.957-0.429,0.957-0.957S196.415,51.656,195.887,51.656z"/>
</g>
</svg>
